<svg xmlns="http://www.w3.org/2000/svg" xmlns:xlink="http://www.w3.org/1999/xlink" width="2000" zoomAndPan="magnify" viewBox="0 0 1500 899.99999" height="1200" preserveAspectRatio="xMidYMid meet" version="1.0"><defs><g/><clipPath id="ea6e443f9b"><rect x="0" width="1404" y="0" height="252"/></clipPath><clipPath id="fd659fc805"><path d="M 884 0.0390625 L 943 0.0390625 L 943 74 L 884 74 Z M 884 0.0390625 " clip-rule="nonzero"/></clipPath><clipPath id="09243c7c6d"><rect x="0" width="970" y="0" height="98"/></clipPath><clipPath id="fb10d1f24f"><path d="M 600.78125 39.121094 L 899.21875 39.121094 L 899.21875 302 L 600.78125 302 Z M 600.78125 39.121094 " clip-rule="nonzero"/></clipPath><clipPath id="c9bfb8c028"><path d="M 749.917969 39.136719 L 600.796875 301.363281 L 749.917969 200.75 L 899.199219 301.363281 Z M 749.917969 39.136719 " clip-rule="nonzero"/></clipPath><clipPath id="bf2582b74b"><path d="M 0.78125 0.121094 L 299.21875 0.121094 L 299.21875 262.441406 L 0.78125 262.441406 Z M 0.78125 0.121094 " clip-rule="nonzero"/></clipPath><clipPath id="d2835148c3"><path d="M 149.917969 0.136719 L 0.796875 262.363281 L 149.917969 161.75 L 299.199219 262.363281 Z M 149.917969 0.136719 " clip-rule="nonzero"/></clipPath><clipPath id="77e3b78e72"><rect x="0" width="300" y="0" height="263"/></clipPath><clipPath id="d6eebfe9a5"><path d="M 600.78125 283.296875 L 899.21875 283.296875 L 899.21875 406 L 600.78125 406 Z M 600.78125 283.296875 " clip-rule="nonzero"/></clipPath><clipPath id="c3970a423b"><path d="M 749.917969 333.753906 L 831.664062 283.445312 L 899.199219 309.972656 L 749.992188 405.421875 L 600.796875 309.628906 L 669.023438 283.445312 Z M 749.917969 333.753906 " clip-rule="nonzero"/></clipPath><clipPath id="e5515ee235"><path d="M 0.78125 0.441406 L 299.21875 0.441406 L 299.21875 122.601562 L 0.78125 122.601562 Z M 0.78125 0.441406 " clip-rule="nonzero"/></clipPath><clipPath id="d419a78f1b"><path d="M 149.917969 50.753906 L 231.664062 0.445312 L 299.199219 26.972656 L 149.992188 122.421875 L 0.796875 26.628906 L 69.023438 0.445312 Z M 149.917969 50.753906 " clip-rule="nonzero"/></clipPath><clipPath id="15a10cc34c"><rect x="0" width="300" y="0" height="123"/></clipPath></defs><g transform="matrix(1, 0, 0, 1, 55, 522)"><g clip-path="url(#ea6e443f9b)"><g fill="#000000" fill-opacity="1"><g transform="translate(1.822371, 194.781401)"><g><path d="M 164.03125 -136.984375 C 164.082031 -128.484375 162.46875 -121.117188 159.1875 -114.890625 C 155.90625 -108.660156 150.109375 -103.566406 141.796875 -99.609375 C 150.828125 -96.429688 157.832031 -91.15625 162.8125 -83.78125 C 167.789062 -76.40625 170.3125 -66.9375 170.375 -55.375 C 170.457031 -40.90625 165.347656 -28.367188 155.046875 -17.765625 C 149.460938 -12.117188 142.722656 -7.867188 134.828125 -5.015625 C 126.941406 -2.160156 115.425781 -0.6875 100.28125 -0.59375 L 19.390625 -0.109375 L 18.296875 -183.328125 L 108.625 -183.875 C 120.03125 -183.945312 129.910156 -181.921875 138.265625 -177.796875 C 146.628906 -173.671875 153 -168.050781 157.375 -160.9375 C 161.757812 -153.820312 163.976562 -145.835938 164.03125 -136.984375 Z M 127.296875 -132.6875 C 127.253906 -140.34375 124.757812 -145.515625 119.8125 -148.203125 C 114.863281 -150.898438 108.050781 -152.222656 99.375 -152.171875 L 55.234375 -151.90625 L 55.46875 -111.84375 L 100.890625 -112.125 C 108.546875 -112.164062 114.875 -113.773438 119.875 -116.953125 C 124.875 -120.128906 127.347656 -125.375 127.296875 -132.6875 Z M 132.09375 -59.234375 C 132.050781 -66.035156 129.550781 -71.421875 124.59375 -75.390625 C 119.632812 -79.359375 112.816406 -81.316406 104.140625 -81.265625 L 55.65625 -80.96875 L 55.953125 -31.96875 L 103.15625 -32.265625 C 122.550781 -32.378906 132.195312 -41.367188 132.09375 -59.234375 Z M 132.09375 -59.234375 "/></g></g></g><g fill="#000000" fill-opacity="1"><g transform="translate(186.047922, 193.676653)"><g><path d="M 73.328125 -25.4375 C 78.609375 -25.46875 83.40625 -26.769531 87.71875 -29.34375 C 92.039062 -31.925781 94.875 -35.609375 96.21875 -40.390625 L 132.96875 -40.609375 C 129.132812 -26.804688 121.960938 -16.085938 111.453125 -8.453125 C 100.953125 -0.816406 88.300781 3.046875 73.5 3.140625 C 51.050781 3.273438 34.132812 -2.832031 22.75 -15.1875 C 11.363281 -27.539062 5.597656 -45.960938 5.453125 -70.453125 C 5.367188 -83.898438 7.800781 -95.828125 12.75 -106.234375 C 17.707031 -116.640625 25.019531 -124.804688 34.6875 -130.734375 C 44.351562 -136.660156 56.078125 -139.664062 69.859375 -139.75 C 89.242188 -139.863281 104.800781 -133.742188 116.53125 -121.390625 C 128.257812 -109.046875 134.195312 -90.285156 134.34375 -65.109375 L 134.390625 -58.984375 L 41.25 -58.421875 C 42.5625 -36.316406 53.253906 -25.320312 73.328125 -25.4375 Z M 69.515625 -110.40625 C 53.179688 -110.300781 44.050781 -100.71875 42.125 -81.65625 L 97.5 -82 C 96.59375 -90.832031 93.65625 -97.785156 88.6875 -102.859375 C 83.726562 -107.929688 77.335938 -110.445312 69.515625 -110.40625 Z M 69.515625 -110.40625 "/></g></g></g><g fill="#000000" fill-opacity="1"><g transform="translate(327.91697, 192.825905)"><g><path d="M 138.765625 -95.75 L 139.328125 -0.828125 L 103.59375 -0.625 L 103.078125 -86.625 C 103.035156 -94.101562 101.003906 -99.828125 96.984375 -103.796875 C 92.960938 -107.773438 87.207031 -109.742188 79.71875 -109.703125 C 71.382812 -109.648438 64.640625 -106.882812 59.484375 -101.40625 C 54.328125 -95.925781 51.78125 -88.507812 51.84375 -79.15625 L 52.3125 -0.3125 L 16.59375 -0.09375 L 15.78125 -135.84375 L 49.96875 -136.046875 L 50.09375 -116.140625 L 50.609375 -116.15625 C 54.804688 -124.175781 60.378906 -130.117188 67.328125 -133.984375 C 74.285156 -137.859375 82.269531 -139.820312 91.28125 -139.875 C 100.644531 -139.9375 108.90625 -138.070312 116.0625 -134.28125 C 123.226562 -130.5 128.789062 -125.257812 132.75 -118.5625 C 136.707031 -111.863281 138.710938 -104.257812 138.765625 -95.75 Z M 138.765625 -95.75 "/></g></g></g><g fill="#000000" fill-opacity="1"><g transform="translate(483.81979, 191.891)"><g><path d="M 73.859375 -109.671875 C 64.328125 -109.609375 57.113281 -105.988281 52.21875 -98.8125 C 47.332031 -91.632812 44.929688 -81.410156 45.015625 -68.140625 C 45.109375 -52.660156 47.640625 -41.785156 52.609375 -35.515625 C 57.578125 -29.253906 64.316406 -26.148438 72.828125 -26.203125 C 79.460938 -26.242188 84.976562 -28.53125 89.375 -33.0625 C 93.769531 -37.601562 96.285156 -43.273438 96.921875 -50.078125 L 133.15625 -50.296875 C 131.039062 -34.640625 124.738281 -21.84375 114.25 -11.90625 C 103.757812 -1.976562 89.5 3.039062 71.46875 3.15625 C 51.050781 3.269531 35.445312 -2.71875 24.65625 -14.8125 C 13.863281 -26.914062 8.40625 -43.34375 8.28125 -64.09375 C 8.144531 -88.414062 13.648438 -107.078125 24.796875 -120.078125 C 35.953125 -133.078125 51.992188 -139.640625 72.921875 -139.765625 C 83.804688 -139.828125 93.679688 -137.84375 102.546875 -133.8125 C 111.410156 -129.789062 118.546875 -123.835938 123.953125 -115.953125 C 129.359375 -108.078125 132.4375 -98.78125 133.1875 -88.0625 L 96.953125 -87.84375 C 95.890625 -94.476562 93.429688 -99.78125 89.578125 -103.75 C 85.734375 -107.726562 80.492188 -109.703125 73.859375 -109.671875 Z M 73.859375 -109.671875 "/></g></g></g><g fill="#000000" fill-opacity="1"><g transform="translate(623.137172, 191.055554)"><g><path d="M 52.125 -118.453125 C 55.132812 -124.941406 60.242188 -130.117188 67.453125 -133.984375 C 74.671875 -137.859375 82.613281 -139.820312 91.28125 -139.875 C 105.40625 -139.957031 116.828125 -135.941406 125.546875 -127.828125 C 134.273438 -119.710938 138.679688 -109.019531 138.765625 -95.75 L 139.328125 -0.828125 L 103.59375 -0.625 L 103.078125 -85.59375 C 102.984375 -101.757812 95.195312 -109.796875 79.71875 -109.703125 C 71.382812 -109.648438 64.640625 -106.882812 59.484375 -101.40625 C 54.328125 -95.925781 51.78125 -88.507812 51.84375 -79.15625 L 52.3125 -0.3125 L 16.59375 -0.09375 L 15.5 -183.3125 L 51.21875 -183.53125 L 51.609375 -118.453125 Z M 52.125 -118.453125 "/></g></g></g><g fill="#000000" fill-opacity="1"><g transform="translate(779.039992, 190.120649)"><g><path d="M 126.625 -118.40625 C 135.894531 -132.914062 147.929688 -140.21875 162.734375 -140.3125 C 172.265625 -140.363281 180.613281 -138.492188 187.78125 -134.703125 C 194.945312 -130.921875 200.460938 -125.640625 204.328125 -118.859375 C 208.191406 -112.078125 210.148438 -104.4375 210.203125 -95.9375 L 210.765625 -1.265625 L 175.046875 -1.046875 L 174.546875 -84.484375 C 174.492188 -93.328125 172.664062 -99.820312 169.0625 -103.96875 C 165.46875 -108.125 160.695312 -110.179688 154.75 -110.140625 C 146.238281 -110.097656 140.125 -107.550781 136.40625 -102.5 C 132.695312 -97.457031 130.867188 -90.769531 130.921875 -82.4375 L 131.40625 -0.78125 L 95.6875 -0.578125 L 95.1875 -84.78125 C 95.132812 -93.800781 93.351562 -100.210938 89.84375 -104.015625 C 86.332031 -107.828125 80.914062 -109.707031 73.59375 -109.65625 C 66.28125 -109.613281 60.765625 -107.328125 57.046875 -102.796875 C 53.335938 -98.265625 51.507812 -92.003906 51.5625 -84.015625 L 52.0625 -0.3125 L 16.328125 -0.09375 L 15.515625 -135.84375 L 49.71875 -136.046875 L 49.84375 -116.140625 L 50.34375 -116.15625 C 58.25 -131.851562 71.046875 -139.753906 88.734375 -139.859375 C 97.410156 -139.910156 104.648438 -138.378906 110.453125 -135.265625 C 116.253906 -132.148438 121.644531 -126.53125 126.625 -118.40625 Z M 126.625 -118.40625 "/></g></g></g><g fill="#000000" fill-opacity="1"><g transform="translate(1005.87733, 188.76037)"><g><path d="M 134.4375 -6.15625 L 134.46875 -0.796875 L 95.9375 -0.578125 C 93.863281 -6.523438 92.726562 -11.875 92.53125 -16.625 C 86.113281 -9.613281 79.421875 -4.554688 72.453125 -1.453125 C 65.492188 1.648438 57.59375 3.226562 48.75 3.28125 C 36.332031 3.351562 26.316406 -0.15625 18.703125 -7.25 C 11.097656 -14.351562 7.257812 -23.945312 7.1875 -36.03125 C 7.125 -47.425781 10.171875 -56.925781 16.328125 -64.53125 C 22.492188 -72.132812 33.5625 -77.347656 49.53125 -80.171875 L 75.03125 -84.15625 C 81.488281 -85.21875 85.773438 -86.519531 87.890625 -88.0625 C 90.015625 -89.601562 91.066406 -92.15625 91.046875 -95.71875 C 91.015625 -100.820312 89.160156 -104.679688 85.484375 -107.296875 C 81.816406 -109.921875 75.8125 -111.207031 67.46875 -111.15625 C 54.03125 -111.070312 46.753906 -104.734375 45.640625 -92.140625 L 11.1875 -91.921875 C 12.457031 -107.410156 17.617188 -119.222656 26.671875 -127.359375 C 35.722656 -135.503906 50.375 -139.632812 70.625 -139.75 C 87.96875 -139.851562 101.503906 -136.53125 111.234375 -129.78125 C 120.972656 -123.03125 125.878906 -113.703125 125.953125 -101.796875 L 126.40625 -26.015625 C 126.445312 -19.722656 127.113281 -15.09375 128.40625 -12.125 C 129.695312 -9.15625 131.707031 -7.164062 134.4375 -6.15625 Z M 91.3125 -49.796875 L 91.21875 -66.640625 C 88.164062 -64.742188 84.851562 -63.234375 81.28125 -62.109375 C 77.71875 -60.984375 72.539062 -59.890625 65.75 -58.828125 C 58.09375 -57.765625 52.359375 -55.648438 48.546875 -52.484375 C 44.742188 -49.316406 42.859375 -44.671875 42.890625 -38.546875 C 42.921875 -33.609375 44.476562 -29.65625 47.5625 -26.6875 C 50.644531 -23.726562 54.648438 -22.265625 59.578125 -22.296875 C 64.859375 -22.328125 69.957031 -23.503906 74.875 -25.828125 C 79.789062 -28.160156 83.765625 -31.421875 86.796875 -35.609375 C 89.835938 -39.796875 91.34375 -44.523438 91.3125 -49.796875 Z M 91.3125 -49.796875 "/></g></g></g><g fill="#000000" fill-opacity="1"><g transform="translate(1147.746378, 187.909622)"><g><path d="M 94.34375 -139.375 L 94.5625 -103.140625 C 91.84375 -103.472656 88.613281 -103.628906 84.875 -103.609375 C 62.59375 -103.472656 51.515625 -92.859375 51.640625 -71.765625 L 52.0625 -0.3125 L 16.328125 -0.09375 L 15.515625 -135.84375 L 49.71875 -136.046875 L 49.859375 -112.578125 L 50.359375 -112.59375 C 55.398438 -122.644531 60.800781 -129.6875 66.5625 -133.71875 C 72.332031 -137.757812 79.300781 -139.804688 87.46875 -139.859375 C 88.3125 -139.859375 90.601562 -139.695312 94.34375 -139.375 Z M 94.34375 -139.375 "/></g></g></g><g fill="#000000" fill-opacity="1"><g transform="translate(1247.003639, 187.314405)"><g><path d="M 97.421875 -136.34375 L 141.3125 -136.59375 L 93.65625 -83.75 L 143.40625 -0.859375 L 100.53125 -0.59375 L 67.78125 -58.578125 L 53.078125 -43.1875 L 53.328125 -0.3125 L 17.609375 -0.109375 L 16.515625 -183.328125 L 52.234375 -183.53125 L 52.828125 -84.515625 Z M 97.421875 -136.34375 "/></g></g></g></g></g><g transform="matrix(1, 0, 0, 1, 277, 755)"><g clip-path="url(#09243c7c6d)"><g fill="#000000" fill-opacity="1"><g transform="translate(2.35906, 77.271489)"><g><path d="M 60.40625 -47.6875 C 60.425781 -43.625 59.570312 -39.890625 57.84375 -36.484375 C 56.125 -33.085938 53.640625 -30.378906 50.390625 -28.359375 C 47.148438 -26.335938 43.332031 -25.316406 38.9375 -25.296875 L 21.71875 -25.1875 L 21.875 -0.125 L 7.359375 -0.046875 L 6.9375 -69.53125 L 38.671875 -69.71875 C 45.390625 -69.757812 50.679688 -67.789062 54.546875 -63.8125 C 58.410156 -59.832031 60.363281 -54.457031 60.40625 -47.6875 Z M 45.890625 -48.1875 C 45.867188 -51.601562 44.867188 -54.046875 42.890625 -55.515625 C 40.910156 -56.984375 37.789062 -57.707031 33.53125 -57.6875 L 21.53125 -57.609375 L 21.65625 -37.1875 L 35.5 -37.28125 C 42.46875 -37.320312 45.929688 -40.957031 45.890625 -48.1875 Z M 45.890625 -48.1875 "/></g></g></g><g fill="#000000" fill-opacity="1"><g transform="translate(89.933848, 76.746328)"><g><path d="M 64.0625 -50.234375 C 64.082031 -46.296875 63.164062 -42.832031 61.3125 -39.84375 C 59.46875 -36.863281 56.832031 -34.789062 53.40625 -33.625 L 55.75 -32.453125 C 58.40625 -31.054688 60.15625 -29.070312 61 -26.5 C 61.851562 -23.925781 62.296875 -20.703125 62.328125 -16.828125 L 62.359375 -10.34375 C 62.390625 -5.4375 63.4375 -2.734375 65.5 -2.234375 L 65.515625 -0.390625 L 49.453125 -0.296875 C 49.054688 -1.453125 48.707031 -2.960938 48.40625 -4.828125 C 48.101562 -6.703125 47.945312 -8.476562 47.9375 -10.15625 L 47.796875 -17.703125 C 47.785156 -20.671875 47.257812 -22.84375 46.21875 -24.21875 C 45.175781 -25.601562 43.878906 -26.484375 42.328125 -26.859375 C 40.785156 -27.242188 38.785156 -27.429688 36.328125 -27.421875 L 21.421875 -27.328125 L 21.578125 -0.125 L 7.359375 -0.046875 L 6.9375 -69.53125 L 42.84375 -69.75 C 47.164062 -69.769531 50.925781 -68.882812 54.125 -67.09375 C 57.332031 -65.3125 59.785156 -62.941406 61.484375 -59.984375 C 63.179688 -57.035156 64.039062 -53.785156 64.0625 -50.234375 Z M 49.546875 -48.6875 C 49.535156 -51.457031 48.632812 -53.660156 46.84375 -55.296875 C 45.0625 -56.929688 42.6875 -57.738281 39.71875 -57.71875 L 21.234375 -57.609375 L 21.34375 -39.03125 L 38.765625 -39.140625 C 42.378906 -39.160156 45.082031 -39.898438 46.875 -41.359375 C 48.675781 -42.828125 49.566406 -45.269531 49.546875 -48.6875 Z M 49.546875 -48.6875 "/></g></g></g><g fill="#000000" fill-opacity="1"><g transform="translate(180.895062, 76.20086)"><g><path d="M 37.65625 1.625 C 31.207031 1.65625 25.457031 0.316406 20.40625 -2.390625 C 15.363281 -5.109375 11.390625 -9.203125 8.484375 -14.671875 C 5.578125 -20.140625 4.101562 -26.84375 4.0625 -34.78125 C 4.007812 -42.582031 5.382812 -49.25 8.1875 -54.78125 C 11 -60.3125 14.910156 -64.476562 19.921875 -67.28125 C 24.941406 -70.09375 30.707031 -71.515625 37.21875 -71.546875 C 43.738281 -71.585938 49.519531 -70.203125 54.5625 -67.390625 C 59.613281 -64.585938 63.570312 -60.453125 66.4375 -54.984375 C 69.3125 -49.515625 70.773438 -42.910156 70.828125 -35.171875 C 70.867188 -27.296875 69.472656 -20.59375 66.640625 -15.0625 C 63.804688 -9.53125 59.863281 -5.375 54.8125 -2.59375 C 49.769531 0.175781 44.050781 1.582031 37.65625 1.625 Z M 56.3125 -35.09375 C 56.257812 -42.832031 54.492188 -48.800781 51.015625 -53 C 47.546875 -57.207031 42.9375 -59.289062 37.1875 -59.25 C 31.570312 -59.21875 27.050781 -57.078125 23.625 -52.828125 C 20.207031 -48.585938 18.523438 -42.597656 18.578125 -34.859375 C 18.617188 -27.109375 20.359375 -21.128906 23.796875 -16.921875 C 27.242188 -12.722656 31.835938 -10.640625 37.578125 -10.671875 C 43.328125 -10.710938 47.894531 -12.851562 51.28125 -17.09375 C 54.675781 -21.34375 56.351562 -27.34375 56.3125 -35.09375 Z M 56.3125 -35.09375 "/></g></g></g><g fill="#000000" fill-opacity="1"><g transform="translate(279.210515, 75.61129)"><g><path d="M 66.078125 -36.78125 C 66.117188 -29.226562 64.960938 -22.703125 62.609375 -17.203125 C 60.265625 -11.710938 56.953125 -7.519531 52.671875 -4.625 C 48.398438 -1.726562 43.488281 -0.265625 37.9375 -0.234375 L 7.359375 -0.046875 L 6.9375 -69.53125 L 38.09375 -69.71875 C 44.226562 -69.75 49.382812 -68.34375 53.5625 -65.5 C 57.75 -62.65625 60.867188 -58.753906 62.921875 -53.796875 C 64.984375 -48.835938 66.035156 -43.164062 66.078125 -36.78125 Z M 51.265625 -35.734375 C 51.179688 -50.441406 46.007812 -57.765625 35.75 -57.703125 L 21.234375 -57.609375 L 21.5 -12.125 L 35.921875 -12.21875 C 40.703125 -12.25 44.46875 -14.367188 47.21875 -18.578125 C 49.96875 -22.785156 51.316406 -28.503906 51.265625 -35.734375 Z M 51.265625 -35.734375 "/></g></g></g><g fill="#000000" fill-opacity="1"><g transform="translate(372.107277, 75.054215)"><g><path d="M 34.203125 -10.65625 C 43.492188 -10.707031 48.113281 -15.117188 48.0625 -23.890625 L 47.78125 -69.765625 L 62.578125 -69.859375 L 62.859375 -24.1875 C 62.910156 -15.925781 60.53125 -9.570312 55.71875 -5.125 C 50.90625 -0.675781 43.820312 1.578125 34.46875 1.640625 C 25.882812 1.691406 19.144531 -0.425781 14.25 -4.71875 C 9.351562 -9.019531 6.878906 -15.367188 6.828125 -23.765625 L 6.546875 -69.53125 L 21.359375 -69.609375 L 21.640625 -24.125 C 21.660156 -20 22.789062 -16.71875 25.03125 -14.28125 C 27.269531 -11.84375 30.328125 -10.632812 34.203125 -10.65625 Z M 34.203125 -10.65625 "/></g></g></g><g fill="#000000" fill-opacity="1"><g transform="translate(465.004038, 74.49714)"><g><path d="M 36.234375 -58.96875 C 30.878906 -58.9375 26.628906 -56.8125 23.484375 -52.59375 C 20.347656 -48.382812 18.804688 -42.40625 18.859375 -34.65625 C 18.898438 -27.363281 20.429688 -21.582031 23.453125 -17.3125 C 26.484375 -13.050781 30.742188 -10.9375 36.234375 -10.96875 C 40.296875 -10.988281 43.640625 -12.117188 46.265625 -14.359375 C 48.898438 -16.597656 50.660156 -19.851562 51.546875 -24.125 L 66.0625 -24.203125 C 64.5 -15.929688 61.097656 -9.566406 55.859375 -5.109375 C 50.628906 -0.660156 44.015625 1.582031 36.015625 1.625 C 29.566406 1.664062 23.941406 0.234375 19.140625 -2.671875 C 14.347656 -5.585938 10.644531 -9.78125 8.03125 -15.25 C 5.425781 -20.71875 4.101562 -27.191406 4.0625 -34.671875 C 4.007812 -42.160156 5.304688 -48.671875 7.953125 -54.203125 C 10.597656 -59.734375 14.332031 -63.992188 19.15625 -66.984375 C 23.976562 -69.984375 29.550781 -71.503906 35.875 -71.546875 C 41.351562 -71.578125 46.289062 -70.539062 50.6875 -68.4375 C 55.09375 -66.332031 58.609375 -63.429688 61.234375 -59.734375 C 63.867188 -56.046875 65.429688 -51.847656 65.921875 -47.140625 L 51.40625 -47.0625 C 49.488281 -55.050781 44.429688 -59.019531 36.234375 -58.96875 Z M 36.234375 -58.96875 "/></g></g></g><g fill="#000000" fill-opacity="1"><g transform="translate(557.9008, 73.940064)"><g><path d="M 36.53125 -57.421875 L 36.875 -0.21875 L 22.359375 -0.140625 L 22.015625 -57.34375 L 1.015625 -57.21875 L 0.9375 -69.5 L 57.453125 -69.828125 L 57.53125 -57.546875 Z M 36.53125 -57.421875 "/></g></g></g><g fill="#000000" fill-opacity="1"><g transform="translate(640.056868, 73.447398)"><g><path d="M 6.1875 -0.03125 L 5.765625 -69.515625 L 20.296875 -69.609375 L 20.71875 -0.125 Z M 6.1875 -0.03125 "/></g></g></g><g fill="#000000" fill-opacity="1"><g transform="translate(689.990911, 73.147958)"><g><path d="M 37.65625 1.625 C 31.207031 1.65625 25.457031 0.316406 20.40625 -2.390625 C 15.363281 -5.109375 11.390625 -9.203125 8.484375 -14.671875 C 5.578125 -20.140625 4.101562 -26.84375 4.0625 -34.78125 C 4.007812 -42.582031 5.382812 -49.25 8.1875 -54.78125 C 11 -60.3125 14.910156 -64.476562 19.921875 -67.28125 C 24.941406 -70.09375 30.707031 -71.515625 37.21875 -71.546875 C 43.738281 -71.585938 49.519531 -70.203125 54.5625 -67.390625 C 59.613281 -64.585938 63.570312 -60.453125 66.4375 -54.984375 C 69.3125 -49.515625 70.773438 -42.910156 70.828125 -35.171875 C 70.867188 -27.296875 69.472656 -20.59375 66.640625 -15.0625 C 63.804688 -9.53125 59.863281 -5.375 54.8125 -2.59375 C 49.769531 0.175781 44.050781 1.582031 37.65625 1.625 Z M 56.3125 -35.09375 C 56.257812 -42.832031 54.492188 -48.800781 51.015625 -53 C 47.546875 -57.207031 42.9375 -59.289062 37.1875 -59.25 C 31.570312 -59.21875 27.050781 -57.078125 23.625 -52.828125 C 20.207031 -48.585938 18.523438 -42.597656 18.578125 -34.859375 C 18.617188 -27.109375 20.359375 -21.128906 23.796875 -16.921875 C 27.242188 -12.722656 31.835938 -10.640625 37.578125 -10.671875 C 43.328125 -10.710938 47.894531 -12.851562 51.28125 -17.09375 C 54.675781 -21.34375 56.351562 -27.34375 56.3125 -35.09375 Z M 56.3125 -35.09375 "/></g></g></g><g fill="#000000" fill-opacity="1"><g transform="translate(788.306379, 72.558388)"><g><path d="M 49.625 -21.390625 L 49.328125 -69.78125 L 62.875 -69.859375 L 63.296875 -0.375 L 48.78125 -0.296875 L 20.125 -49.671875 L 19.9375 -49.671875 L 20.234375 -0.125 L 6.671875 -0.046875 L 6.25 -69.53125 L 21.546875 -69.609375 L 49.421875 -21.390625 Z M 49.625 -21.390625 "/></g></g></g><g clip-path="url(#fd659fc805)"><g fill="#000000" fill-opacity="1"><g transform="translate(881.203082, 72.001313)"><g><path d="M 30.125 -59.515625 C 26.570312 -59.492188 23.671875 -58.71875 21.421875 -57.1875 C 19.179688 -55.65625 18.066406 -53.628906 18.078125 -51.109375 C 18.097656 -49.242188 18.640625 -47.710938 19.703125 -46.515625 C 20.773438 -45.328125 22.988281 -44.359375 26.34375 -43.609375 L 42.734375 -39.734375 C 49.453125 -38.160156 54.125 -35.863281 56.75 -32.84375 C 59.382812 -29.832031 60.71875 -25.972656 60.75 -21.265625 C 60.78125 -16.296875 59.59375 -12.09375 57.1875 -8.65625 C 54.789062 -5.226562 51.535156 -2.660156 47.421875 -0.953125 C 43.304688 0.742188 38.632812 1.609375 33.40625 1.640625 C 24.238281 1.691406 17.0625 -0.203125 11.875 -4.046875 C 6.6875 -7.890625 3.945312 -13.675781 3.65625 -21.40625 L 17.59375 -21.5 C 17.738281 -17.945312 19.070312 -15.191406 21.59375 -13.234375 C 24.125 -11.285156 27.710938 -10.320312 32.359375 -10.34375 C 37.066406 -10.375 40.65625 -11.140625 43.125 -12.640625 C 45.601562 -14.140625 46.835938 -16.40625 46.828125 -19.4375 C 46.816406 -21.375 46.144531 -22.882812 44.8125 -23.96875 C 43.476562 -25.0625 41.257812 -26.050781 38.15625 -26.9375 C 35.0625 -27.820312 29.894531 -29.050781 22.65625 -30.625 C 16.332031 -32 11.738281 -34.226562 8.875 -37.3125 C 6.019531 -40.394531 4.578125 -44.613281 4.546875 -49.96875 C 4.523438 -54.101562 5.488281 -57.785156 7.4375 -61.015625 C 9.382812 -64.253906 12.351562 -66.804688 16.34375 -68.671875 C 20.332031 -70.535156 25.257812 -71.484375 31.125 -71.515625 C 36.476562 -71.546875 41.175781 -70.65625 45.21875 -68.84375 C 49.269531 -67.03125 52.429688 -64.4375 54.703125 -61.0625 C 56.984375 -57.6875 58.203125 -53.738281 58.359375 -49.21875 L 44.421875 -49.140625 C 43.734375 -56.109375 38.96875 -59.566406 30.125 -59.515625 Z M 30.125 -59.515625 "/></g></g></g></g></g></g><g clip-path="url(#fb10d1f24f)"><g clip-path="url(#c9bfb8c028)"><g transform="matrix(1, 0, 0, 1, 600, 39)"><g clip-path="url(#77e3b78e72)"><g clip-path="url(#bf2582b74b)"><g clip-path="url(#d2835148c3)"><rect x="-930" width="2160" fill="#231f20" height="1295.999986" y="-236.999998" fill-opacity="1"/></g></g></g></g></g></g><g clip-path="url(#d6eebfe9a5)"><g clip-path="url(#c3970a423b)"><g transform="matrix(1, 0, 0, 1, 600, 283)"><g clip-path="url(#15a10cc34c)"><g clip-path="url(#e5515ee235)"><g clip-path="url(#d419a78f1b)"><rect x="-930" width="2160" fill="#231f20" height="1295.999986" y="-480.999998" fill-opacity="1"/></g></g></g></g></g></g></svg>