<svg xmlns="http://www.w3.org/2000/svg" xmlns:xlink="http://www.w3.org/1999/xlink" width="2000" zoomAndPan="magnify" viewBox="0 0 1500 449.999984" height="600" preserveAspectRatio="xMidYMid meet" version="1.0"><defs><g/><clipPath id="42d5518d73"><rect x="0" width="1453" y="0" height="260"/></clipPath><clipPath id="8e7d9ce0f7"><rect x="0" width="1004" y="0" height="102"/></clipPath></defs><g transform="matrix(1, 0, 0, 1, 31, 60)"><g clip-path="url(#42d5518d73)"><g fill="#000000" fill-opacity="1"><g transform="translate(1.55341, 201.179371)"><g><path d="M 169.765625 -141.78125 C 169.816406 -132.976562 168.144531 -125.351562 164.75 -118.90625 C 161.363281 -112.457031 155.367188 -107.179688 146.765625 -103.078125 C 156.117188 -99.796875 163.367188 -94.34375 168.515625 -86.71875 C 173.671875 -79.09375 176.28125 -69.289062 176.34375 -57.3125 C 176.4375 -42.351562 171.144531 -29.378906 160.46875 -18.390625 C 154.695312 -12.546875 147.722656 -8.144531 139.546875 -5.1875 C 131.378906 -2.238281 119.460938 -0.71875 103.796875 -0.625 L 20.078125 -0.125 L 18.9375 -189.75 L 112.421875 -190.296875 C 124.222656 -190.367188 134.445312 -188.273438 143.09375 -184.015625 C 151.75 -179.753906 158.34375 -173.9375 162.875 -166.5625 C 167.414062 -159.195312 169.710938 -150.9375 169.765625 -141.78125 Z M 131.765625 -137.34375 C 131.710938 -145.257812 129.125 -150.609375 124 -153.390625 C 118.882812 -156.179688 111.835938 -157.550781 102.859375 -157.5 L 57.171875 -157.21875 L 57.421875 -115.765625 L 104.421875 -116.046875 C 112.347656 -116.097656 118.894531 -117.765625 124.0625 -121.046875 C 129.238281 -124.335938 131.804688 -129.769531 131.765625 -137.34375 Z M 136.71875 -61.296875 C 136.675781 -68.335938 134.085938 -73.910156 128.953125 -78.015625 C 123.816406 -82.128906 116.757812 -84.15625 107.78125 -84.09375 L 57.609375 -83.796875 L 57.90625 -33.09375 L 106.765625 -33.390625 C 126.835938 -33.503906 136.820312 -42.804688 136.71875 -61.296875 Z M 136.71875 -61.296875 "/></g></g></g><g fill="#000000" fill-opacity="1"><g transform="translate(192.228912, 200.035945)"><g><path d="M 75.90625 -26.328125 C 81.363281 -26.359375 86.328125 -27.707031 90.796875 -30.375 C 95.273438 -33.050781 98.203125 -36.859375 99.578125 -41.796875 L 137.609375 -42.03125 C 133.648438 -27.738281 126.234375 -16.640625 115.359375 -8.734375 C 104.492188 -0.835938 91.398438 3.15625 76.078125 3.25 C 52.835938 3.382812 35.328125 -2.9375 23.546875 -15.71875 C 11.765625 -28.5 5.796875 -47.566406 5.640625 -72.921875 C 5.554688 -86.835938 8.078125 -99.179688 13.203125 -109.953125 C 18.335938 -120.722656 25.90625 -129.175781 35.90625 -135.3125 C 45.90625 -141.445312 58.035156 -144.554688 72.296875 -144.640625 C 92.367188 -144.765625 108.472656 -138.429688 120.609375 -125.640625 C 132.753906 -112.859375 138.90625 -93.441406 139.0625 -67.390625 L 139.09375 -61.046875 L 42.6875 -60.46875 C 44.0625 -37.582031 55.132812 -26.203125 75.90625 -26.328125 Z M 71.9375 -114.265625 C 55.039062 -114.160156 45.597656 -104.242188 43.609375 -84.515625 L 100.921875 -84.859375 C 99.972656 -94.003906 96.929688 -101.203125 91.796875 -106.453125 C 86.660156 -111.703125 80.039062 -114.304688 71.9375 -114.265625 Z M 71.9375 -114.265625 "/></g></g></g><g fill="#000000" fill-opacity="1"><g transform="translate(339.064961, 199.155411)"><g><path d="M 143.609375 -99.109375 L 144.203125 -0.859375 L 107.234375 -0.640625 L 106.703125 -89.640625 C 106.648438 -97.390625 104.539062 -103.316406 100.375 -107.421875 C 96.21875 -111.535156 90.265625 -113.570312 82.515625 -113.53125 C 73.890625 -113.476562 66.90625 -110.617188 61.5625 -104.953125 C 56.226562 -99.296875 53.59375 -91.625 53.65625 -81.9375 L 54.140625 -0.328125 L 17.171875 -0.109375 L 16.328125 -140.609375 L 51.71875 -140.8125 L 51.84375 -120.21875 L 52.375 -120.21875 C 56.71875 -128.519531 62.488281 -134.671875 69.6875 -138.671875 C 76.882812 -142.679688 85.148438 -144.710938 94.484375 -144.765625 C 104.171875 -144.828125 112.71875 -142.898438 120.125 -138.984375 C 127.539062 -135.066406 133.296875 -129.640625 137.390625 -122.703125 C 141.484375 -115.773438 143.554688 -107.910156 143.609375 -99.109375 Z M 143.609375 -99.109375 "/></g></g></g><g fill="#000000" fill-opacity="1"><g transform="translate(500.42612, 198.187774)"><g><path d="M 76.453125 -113.5 C 66.585938 -113.4375 59.125 -109.691406 54.0625 -102.265625 C 49 -94.847656 46.507812 -84.269531 46.59375 -70.53125 C 46.6875 -54.507812 49.304688 -43.253906 54.453125 -36.765625 C 59.597656 -30.285156 66.570312 -27.070312 75.375 -27.125 C 82.238281 -27.164062 87.941406 -29.53125 92.484375 -34.21875 C 97.035156 -38.914062 99.644531 -44.789062 100.3125 -51.84375 L 137.8125 -52.0625 C 135.632812 -35.851562 129.113281 -22.609375 118.25 -12.328125 C 107.394531 -2.046875 92.632812 3.148438 73.96875 3.265625 C 52.832031 3.390625 36.679688 -2.804688 25.515625 -15.328125 C 14.359375 -27.847656 8.71875 -44.851562 8.59375 -66.34375 C 8.4375 -91.519531 14.128906 -110.832031 25.671875 -124.28125 C 37.210938 -137.738281 53.8125 -144.53125 75.46875 -144.65625 C 86.738281 -144.726562 96.960938 -142.675781 106.140625 -138.5 C 115.328125 -134.332031 122.71875 -128.171875 128.3125 -120.015625 C 133.90625 -111.867188 137.082031 -102.25 137.84375 -91.15625 L 100.34375 -90.9375 C 99.25 -97.789062 96.707031 -103.269531 92.71875 -107.375 C 88.738281 -111.488281 83.316406 -113.53125 76.453125 -113.5 Z M 76.453125 -113.5 "/></g></g></g><g fill="#000000" fill-opacity="1"><g transform="translate(644.621165, 197.323078)"><g><path d="M 53.9375 -122.609375 C 57.0625 -129.316406 62.351562 -134.671875 69.8125 -138.671875 C 77.28125 -142.679688 85.503906 -144.710938 94.484375 -144.765625 C 109.097656 -144.859375 120.921875 -140.703125 129.953125 -132.296875 C 138.984375 -123.898438 143.535156 -112.835938 143.609375 -99.109375 L 144.203125 -0.859375 L 107.234375 -0.640625 L 106.703125 -88.59375 C 106.609375 -105.3125 98.546875 -113.625 82.515625 -113.53125 C 73.890625 -113.476562 66.90625 -110.617188 61.5625 -104.953125 C 56.226562 -99.296875 53.59375 -91.625 53.65625 -81.9375 L 54.140625 -0.328125 L 17.171875 -0.109375 L 16.03125 -189.734375 L 53 -189.953125 L 53.40625 -122.609375 Z M 53.9375 -122.609375 "/></g></g></g><g fill="#000000" fill-opacity="1"><g transform="translate(805.982324, 196.355441)"><g><path d="M 131.0625 -122.53125 C 140.65625 -137.5625 153.113281 -145.125 168.4375 -145.21875 C 178.289062 -145.269531 186.925781 -143.335938 194.34375 -139.421875 C 201.757812 -135.503906 207.46875 -130.035156 211.46875 -123.015625 C 215.476562 -116.003906 217.507812 -108.097656 217.5625 -99.296875 L 218.15625 -1.3125 L 181.171875 -1.078125 L 180.65625 -87.4375 C 180.601562 -96.59375 178.71875 -103.316406 175 -107.609375 C 171.28125 -111.898438 166.335938 -114.03125 160.171875 -114 C 151.367188 -113.945312 145.046875 -111.3125 141.203125 -106.09375 C 137.359375 -100.875 135.460938 -93.953125 135.515625 -85.328125 L 136.015625 -0.8125 L 99.046875 -0.59375 L 98.53125 -87.75 C 98.46875 -97.082031 96.617188 -103.71875 92.984375 -107.65625 C 89.359375 -111.59375 83.757812 -113.535156 76.1875 -113.484375 C 68.613281 -113.441406 62.898438 -111.078125 59.046875 -106.390625 C 55.203125 -101.710938 53.304688 -95.234375 53.359375 -86.953125 L 53.875 -0.328125 L 16.90625 -0.09375 L 16.0625 -140.59375 L 51.453125 -140.8125 L 51.578125 -120.21875 L 52.109375 -120.21875 C 60.285156 -136.46875 73.53125 -144.644531 91.84375 -144.75 C 100.820312 -144.8125 108.3125 -143.234375 114.3125 -140.015625 C 120.320312 -136.796875 125.90625 -130.96875 131.0625 -122.53125 Z M 131.0625 -122.53125 "/></g></g></g><g fill="#000000" fill-opacity="1"><g transform="translate(1040.761502, 194.947537)"><g><path d="M 139.15625 -6.375 L 139.1875 -0.828125 L 99.3125 -0.59375 C 97.15625 -6.75 95.976562 -12.289062 95.78125 -17.21875 C 89.125 -9.957031 82.191406 -4.71875 74.984375 -1.5 C 67.785156 1.707031 59.609375 3.34375 50.453125 3.40625 C 37.609375 3.476562 27.242188 -0.15625 19.359375 -7.5 C 11.484375 -14.851562 7.507812 -24.78125 7.4375 -37.28125 C 7.363281 -49.082031 10.515625 -58.914062 16.890625 -66.78125 C 23.273438 -74.65625 34.734375 -80.054688 51.265625 -82.984375 L 77.65625 -87.09375 C 84.34375 -88.195312 88.78125 -89.546875 90.96875 -91.140625 C 93.15625 -92.734375 94.238281 -95.378906 94.21875 -99.078125 C 94.1875 -104.359375 92.269531 -108.351562 88.46875 -111.0625 C 84.664062 -113.769531 78.453125 -115.097656 69.828125 -115.046875 C 55.921875 -114.960938 48.390625 -108.398438 47.234375 -95.359375 L 11.59375 -95.15625 C 12.894531 -111.175781 18.226562 -123.394531 27.59375 -131.8125 C 36.96875 -140.238281 52.132812 -144.515625 73.09375 -144.640625 C 91.050781 -144.753906 105.066406 -141.316406 115.140625 -134.328125 C 125.222656 -127.347656 130.300781 -117.695312 130.375 -105.375 L 130.84375 -26.921875 C 130.882812 -20.410156 131.570312 -15.617188 132.90625 -12.546875 C 134.238281 -9.472656 136.320312 -7.414062 139.15625 -6.375 Z M 94.5 -51.53125 L 94.40625 -68.96875 C 91.25 -67.007812 87.820312 -65.445312 84.125 -64.28125 C 80.4375 -63.113281 75.078125 -61.984375 68.046875 -60.890625 C 60.117188 -59.785156 54.1875 -57.59375 50.25 -54.3125 C 46.3125 -51.03125 44.363281 -46.21875 44.40625 -39.875 C 44.4375 -34.769531 46.039062 -30.6875 49.21875 -27.625 C 52.40625 -24.570312 56.550781 -23.0625 61.65625 -23.09375 C 67.113281 -23.125 72.390625 -24.34375 77.484375 -26.75 C 82.585938 -29.15625 86.707031 -32.519531 89.84375 -36.84375 C 92.988281 -41.175781 94.539062 -46.070312 94.5 -51.53125 Z M 94.5 -51.53125 "/></g></g></g><g fill="#000000" fill-opacity="1"><g transform="translate(1187.59755, 194.067004)"><g><path d="M 97.65625 -144.265625 L 97.875 -106.765625 C 95.050781 -107.097656 91.707031 -107.253906 87.84375 -107.234375 C 64.769531 -107.097656 53.300781 -96.113281 53.4375 -74.28125 L 53.875 -0.328125 L 16.90625 -0.09375 L 16.0625 -140.59375 L 51.453125 -140.8125 L 51.609375 -116.515625 L 52.140625 -116.515625 C 57.359375 -126.941406 62.945312 -134.238281 68.90625 -138.40625 C 74.863281 -142.582031 82.066406 -144.695312 90.515625 -144.75 C 91.398438 -144.75 93.78125 -144.585938 97.65625 -144.265625 Z M 97.65625 -144.265625 "/></g></g></g><g fill="#000000" fill-opacity="1"><g transform="translate(1290.329923, 193.450947)"><g><path d="M 100.84375 -141.109375 L 146.265625 -141.375 L 96.9375 -86.671875 L 148.421875 -0.890625 L 104.0625 -0.625 L 70.15625 -60.640625 L 54.9375 -44.703125 L 55.203125 -0.328125 L 18.21875 -0.109375 L 17.078125 -189.734375 L 54.0625 -189.953125 L 54.6875 -87.484375 Z M 100.84375 -141.109375 "/></g></g></g></g></g><g transform="matrix(1, 0, 0, 1, 261, 300)"><g clip-path="url(#8e7d9ce0f7)"><g fill="#000000" fill-opacity="1"><g transform="translate(1.8814, 80.712914)"><g><path d="M 62.515625 -49.359375 C 62.546875 -45.148438 61.671875 -41.285156 59.890625 -37.765625 C 58.109375 -34.253906 55.535156 -31.453125 52.171875 -29.359375 C 48.804688 -27.265625 44.851562 -26.203125 40.3125 -26.171875 L 22.484375 -26.078125 L 22.640625 -0.140625 L 7.609375 -0.046875 L 7.171875 -71.96875 L 40.03125 -72.15625 C 46.976562 -72.195312 52.453125 -70.160156 56.453125 -66.046875 C 60.453125 -61.929688 62.472656 -56.367188 62.515625 -49.359375 Z M 47.484375 -49.859375 C 47.460938 -53.398438 46.425781 -55.929688 44.375 -57.453125 C 42.332031 -58.984375 39.109375 -59.734375 34.703125 -59.703125 L 22.28125 -59.640625 L 22.40625 -38.5 L 36.734375 -38.578125 C 43.941406 -38.617188 47.523438 -42.378906 47.484375 -49.859375 Z M 47.484375 -49.859375 "/></g></g></g><g fill="#000000" fill-opacity="1"><g transform="translate(92.52229, 80.169367)"><g><path d="M 66.296875 -51.984375 C 66.328125 -47.910156 65.378906 -44.332031 63.453125 -41.25 C 61.535156 -38.164062 58.816406 -36.007812 55.296875 -34.78125 L 57.703125 -33.59375 C 60.441406 -32.144531 62.253906 -30.085938 63.140625 -27.421875 C 64.023438 -24.765625 64.476562 -21.429688 64.5 -17.421875 L 64.546875 -10.703125 C 64.578125 -5.628906 65.660156 -2.832031 67.796875 -2.3125 L 67.8125 -0.40625 L 51.1875 -0.3125 C 50.78125 -1.5 50.421875 -3.0625 50.109375 -5 C 49.796875 -6.9375 49.632812 -8.773438 49.625 -10.515625 L 49.46875 -18.328125 C 49.445312 -21.398438 48.898438 -23.648438 47.828125 -25.078125 C 46.753906 -26.515625 45.414062 -27.425781 43.8125 -27.8125 C 42.207031 -28.195312 40.132812 -28.378906 37.59375 -28.359375 L 22.171875 -28.28125 L 22.34375 -0.140625 L 7.609375 -0.046875 L 7.171875 -71.96875 L 44.34375 -72.1875 C 48.8125 -72.21875 52.707031 -71.304688 56.03125 -69.453125 C 59.351562 -67.609375 61.890625 -65.148438 63.640625 -62.078125 C 65.390625 -59.015625 66.273438 -55.648438 66.296875 -51.984375 Z M 51.296875 -50.390625 C 51.273438 -53.265625 50.335938 -55.546875 48.484375 -57.234375 C 46.640625 -58.929688 44.179688 -59.769531 41.109375 -59.75 L 21.984375 -59.640625 L 22.109375 -40.40625 L 40.140625 -40.5 C 43.878906 -40.53125 46.675781 -41.300781 48.53125 -42.8125 C 50.394531 -44.332031 51.316406 -46.859375 51.296875 -50.390625 Z M 51.296875 -50.390625 "/></g></g></g><g fill="#000000" fill-opacity="1"><g transform="translate(186.66817, 79.604801)"><g><path d="M 38.984375 1.671875 C 32.304688 1.710938 26.351562 0.332031 21.125 -2.46875 C 15.894531 -5.28125 11.773438 -9.515625 8.765625 -15.171875 C 5.765625 -20.835938 4.238281 -27.78125 4.1875 -36 C 4.144531 -44.070312 5.570312 -50.972656 8.46875 -56.703125 C 11.375 -62.429688 15.421875 -66.742188 20.609375 -69.640625 C 25.804688 -72.546875 31.78125 -74.019531 38.53125 -74.0625 C 45.269531 -74.101562 51.253906 -72.671875 56.484375 -69.765625 C 61.710938 -66.859375 65.8125 -62.570312 68.78125 -56.90625 C 71.757812 -51.25 73.269531 -44.414062 73.3125 -36.40625 C 73.363281 -28.25 71.914062 -21.304688 68.96875 -15.578125 C 66.03125 -9.859375 61.953125 -5.5625 56.734375 -2.6875 C 51.515625 0.175781 45.597656 1.628906 38.984375 1.671875 Z M 58.28125 -36.3125 C 58.238281 -44.320312 56.414062 -50.503906 52.8125 -54.859375 C 49.21875 -59.210938 44.445312 -61.375 38.5 -61.34375 C 32.695312 -61.3125 28.019531 -59.09375 24.46875 -54.6875 C 20.925781 -50.289062 19.175781 -44.085938 19.21875 -36.078125 C 19.269531 -28.054688 21.078125 -21.867188 24.640625 -17.515625 C 28.203125 -13.171875 32.957031 -11.015625 38.90625 -11.046875 C 44.84375 -11.078125 49.566406 -13.289062 53.078125 -17.6875 C 56.597656 -22.082031 58.332031 -28.289062 58.28125 -36.3125 Z M 58.28125 -36.3125 "/></g></g></g><g fill="#000000" fill-opacity="1"><g transform="translate(288.425769, 78.99459)"><g><path d="M 68.40625 -38.078125 C 68.445312 -30.253906 67.25 -23.5 64.8125 -17.8125 C 62.375 -12.125 58.941406 -7.78125 54.515625 -4.78125 C 50.085938 -1.78125 45.003906 -0.265625 39.265625 -0.234375 L 7.609375 -0.046875 L 7.171875 -71.96875 L 39.4375 -72.15625 C 45.78125 -72.195312 51.113281 -70.742188 55.4375 -67.796875 C 59.769531 -64.859375 63.003906 -60.820312 65.140625 -55.6875 C 67.273438 -50.550781 68.363281 -44.679688 68.40625 -38.078125 Z M 53.078125 -36.96875 C 52.984375 -52.195312 47.625 -59.78125 37 -59.71875 L 21.984375 -59.640625 L 22.265625 -12.5625 L 37.1875 -12.640625 C 42.125 -12.671875 46.015625 -14.863281 48.859375 -19.21875 C 51.710938 -23.570312 53.117188 -29.488281 53.078125 -36.96875 Z M 53.078125 -36.96875 "/></g></g></g><g fill="#000000" fill-opacity="1"><g transform="translate(384.574962, 78.418011)"><g><path d="M 35.390625 -11.03125 C 45.015625 -11.082031 49.800781 -15.648438 49.75 -24.734375 L 49.453125 -72.21875 L 64.78125 -72.3125 L 65.078125 -25.03125 C 65.117188 -16.476562 62.648438 -9.898438 57.671875 -5.296875 C 52.691406 -0.691406 45.359375 1.632812 35.671875 1.6875 C 26.796875 1.738281 19.820312 -0.453125 14.75 -4.890625 C 9.6875 -9.335938 7.128906 -15.90625 7.078125 -24.59375 L 6.78125 -71.96875 L 22.09375 -72.0625 L 22.375 -24.984375 C 22.40625 -20.710938 23.582031 -17.3125 25.90625 -14.78125 C 28.226562 -12.25 31.390625 -11 35.390625 -11.03125 Z M 35.390625 -11.03125 "/></g></g></g><g fill="#000000" fill-opacity="1"><g transform="translate(480.724154, 77.841432)"><g><path d="M 37.5 -61.015625 C 31.957031 -60.984375 27.5625 -58.789062 24.3125 -54.4375 C 21.070312 -50.082031 19.472656 -43.898438 19.515625 -35.890625 C 19.566406 -28.335938 21.15625 -22.347656 24.28125 -17.921875 C 27.414062 -13.503906 31.820312 -11.3125 37.5 -11.34375 C 41.707031 -11.375 45.171875 -12.546875 47.890625 -14.859375 C 50.617188 -17.179688 52.4375 -20.546875 53.34375 -24.953125 L 68.375 -25.046875 C 66.75 -16.484375 63.226562 -9.898438 57.8125 -5.296875 C 52.40625 -0.691406 45.5625 1.632812 37.28125 1.6875 C 30.601562 1.726562 24.78125 0.242188 19.8125 -2.765625 C 14.851562 -5.785156 11.019531 -10.125 8.3125 -15.78125 C 5.613281 -21.4375 4.238281 -28.140625 4.1875 -35.890625 C 4.144531 -43.640625 5.488281 -50.375 8.21875 -56.09375 C 10.957031 -61.820312 14.820312 -66.238281 19.8125 -69.34375 C 24.8125 -72.445312 30.582031 -74.015625 37.125 -74.046875 C 42.800781 -74.085938 47.914062 -73.019531 52.46875 -70.84375 C 57.019531 -68.664062 60.660156 -65.664062 63.390625 -61.84375 C 66.117188 -58.019531 67.726562 -53.671875 68.21875 -48.796875 L 53.1875 -48.703125 C 51.21875 -56.960938 45.988281 -61.066406 37.5 -61.015625 Z M 37.5 -61.015625 "/></g></g></g><g fill="#000000" fill-opacity="1"><g transform="translate(576.873347, 77.264852)"><g><path d="M 37.8125 -59.4375 L 38.171875 -0.234375 L 23.140625 -0.140625 L 22.78125 -59.34375 L 1.046875 -59.21875 L 0.96875 -71.9375 L 59.46875 -72.28125 L 59.546875 -59.5625 Z M 37.8125 -59.4375 "/></g></g></g><g fill="#000000" fill-opacity="1"><g transform="translate(661.905801, 76.754937)"><g><path d="M 6.40625 -0.03125 L 5.96875 -71.953125 L 21 -72.046875 L 21.4375 -0.125 Z M 6.40625 -0.03125 "/></g></g></g><g fill="#000000" fill-opacity="1"><g transform="translate(713.588097, 76.445013)"><g><path d="M 38.984375 1.671875 C 32.304688 1.710938 26.351562 0.332031 21.125 -2.46875 C 15.894531 -5.28125 11.773438 -9.515625 8.765625 -15.171875 C 5.765625 -20.835938 4.238281 -27.78125 4.1875 -36 C 4.144531 -44.070312 5.570312 -50.972656 8.46875 -56.703125 C 11.375 -62.429688 15.421875 -66.742188 20.609375 -69.640625 C 25.804688 -72.546875 31.78125 -74.019531 38.53125 -74.0625 C 45.269531 -74.101562 51.253906 -72.671875 56.484375 -69.765625 C 61.710938 -66.859375 65.8125 -62.570312 68.78125 -56.90625 C 71.757812 -51.25 73.269531 -44.414062 73.3125 -36.40625 C 73.363281 -28.25 71.914062 -21.304688 68.96875 -15.578125 C 66.03125 -9.859375 61.953125 -5.5625 56.734375 -2.6875 C 51.515625 0.175781 45.597656 1.628906 38.984375 1.671875 Z M 58.28125 -36.3125 C 58.238281 -44.320312 56.414062 -50.503906 52.8125 -54.859375 C 49.21875 -59.210938 44.445312 -61.375 38.5 -61.34375 C 32.695312 -61.3125 28.019531 -59.09375 24.46875 -54.6875 C 20.925781 -50.289062 19.175781 -44.085938 19.21875 -36.078125 C 19.269531 -28.054688 21.078125 -21.867188 24.640625 -17.515625 C 28.203125 -13.171875 32.957031 -11.015625 38.90625 -11.046875 C 44.84375 -11.078125 49.566406 -13.289062 53.078125 -17.6875 C 56.597656 -22.082031 58.332031 -28.289062 58.28125 -36.3125 Z M 58.28125 -36.3125 "/></g></g></g><g fill="#000000" fill-opacity="1"><g transform="translate(815.345712, 75.834802)"><g><path d="M 51.359375 -22.15625 L 51.046875 -72.234375 L 65.078125 -72.3125 L 65.515625 -0.390625 L 50.484375 -0.296875 L 20.828125 -51.40625 L 20.625 -51.40625 L 20.9375 -0.125 L 6.90625 -0.046875 L 6.46875 -71.96875 L 22.296875 -72.0625 L 51.15625 -22.15625 Z M 51.359375 -22.15625 "/></g></g></g><g fill="#000000" fill-opacity="1"><g transform="translate(911.494844, 75.258223)"><g><path d="M 31.171875 -61.59375 C 27.503906 -61.570312 24.503906 -60.769531 22.171875 -59.1875 C 19.847656 -57.601562 18.695312 -55.507812 18.71875 -52.90625 C 18.726562 -50.96875 19.285156 -49.382812 20.390625 -48.15625 C 21.503906 -46.925781 23.800781 -45.925781 27.28125 -45.15625 L 44.21875 -41.140625 C 51.175781 -39.503906 56.019531 -37.125 58.75 -34 C 61.476562 -30.882812 62.859375 -26.890625 62.890625 -22.015625 C 62.921875 -16.867188 61.691406 -12.519531 59.203125 -8.96875 C 56.722656 -5.414062 53.347656 -2.753906 49.078125 -0.984375 C 44.816406 0.773438 39.984375 1.671875 34.578125 1.703125 C 25.085938 1.753906 17.660156 -0.207031 12.296875 -4.1875 C 6.929688 -8.164062 4.09375 -14.15625 3.78125 -22.15625 L 18.203125 -22.25 C 18.359375 -18.570312 19.742188 -15.722656 22.359375 -13.703125 C 24.972656 -11.679688 28.6875 -10.6875 33.5 -10.71875 C 38.375 -10.75 42.085938 -11.539062 44.640625 -13.09375 C 47.203125 -14.644531 48.472656 -16.988281 48.453125 -20.125 C 48.441406 -22.132812 47.75 -23.703125 46.375 -24.828125 C 45 -25.953125 42.707031 -26.96875 39.5 -27.875 C 36.289062 -28.789062 30.941406 -30.0625 23.453125 -31.6875 C 16.898438 -33.125 12.144531 -35.4375 9.1875 -38.625 C 6.226562 -41.8125 4.734375 -46.175781 4.703125 -51.71875 C 4.679688 -55.988281 5.675781 -59.796875 7.6875 -63.140625 C 9.707031 -66.492188 12.78125 -69.132812 16.90625 -71.0625 C 21.039062 -73 26.144531 -73.988281 32.21875 -74.03125 C 37.757812 -74.0625 42.617188 -73.132812 46.796875 -71.25 C 50.984375 -69.363281 54.253906 -66.675781 56.609375 -63.1875 C 58.972656 -59.695312 60.238281 -55.617188 60.40625 -50.953125 L 45.984375 -50.875 C 45.265625 -58.070312 40.328125 -61.644531 31.171875 -61.59375 Z M 31.171875 -61.59375 "/></g></g></g></g></g></svg>